<?xml version="1.0" encoding="utf-8"?>
<!-- Generator: Adobe Illustrator 23.0.3, SVG Export Plug-In . SVG Version: 6.00 Build 0)  -->
<svg version="1.1" id="Ebene_1" xmlns="http://www.w3.org/2000/svg" xmlns:xlink="http://www.w3.org/1999/xlink" x="0px" y="0px"
	 viewBox="0 0 311.81 170.08" style="enable-background:new 0 0 311.81 170.08;" xml:space="preserve">
<style type="text/css">
	.st0{fill:#181716;}
</style>
<g>
	<path class="st0" d="M41.02,17.59v5.6c-2.46-1.92-4.91-2.92-7.25-2.92c-2.11,0-3.11,1-3.11,2.3c0,1.23,0.73,2.03,3.95,3.68
		c4.34,2.22,7.48,4.11,7.48,8.52c0,4.57-3.76,7.6-9.13,7.6c-2.88,0-5.87-0.84-8.52-2.19v-5.91c2.8,2.23,5.34,3.15,7.67,3.15
		c2.34,0,3.38-1.15,3.38-2.38c0-1.3-0.5-2.15-4.72-4.22c-2.84-1.46-6.52-3.49-6.52-8.06c0-4.03,3.11-7.25,8.86-7.25
		C36.11,15.52,38.98,16.36,41.02,17.59"/>
	<path class="st0" d="M74.47,28.95c0,7.33-5.22,13.43-14.58,13.43c-9.44,0-14.47-6.29-14.47-13.39c0-6.48,4.34-13.47,14.58-13.47
		C69.03,15.52,74.47,21.43,74.47,28.95 M52.18,28.99c0,4.53,3.18,7.64,7.71,7.64c4.6,0,7.83-2.88,7.83-7.71
		c0-4.11-2.76-7.64-7.79-7.64C55.14,21.27,52.18,24.46,52.18,28.99"/>
	<polygon class="st0" points="101.26,15.86 86.87,36.62 101.26,36.62 101.26,42.03 75.74,42.03 90.17,21.28 76.81,21.28 
		76.81,15.86 	"/>
	<rect x="106.13" y="15.86" class="st0" width="6.6" height="26.17"/>
	<path class="st0" d="M59.43,50.28v14.2c0,4.3,2.19,6.72,6.41,6.72c4.03,0,6.33-2.07,6.33-6.64V50.28h6.6v14.43
		c0,7.79-4.8,12.09-12.93,12.09c-8.4,0-13.01-4.53-13.01-11.97V50.28H59.43z"/>
	<polygon class="st0" points="90.72,50.28 90.72,71.04 102.58,71.04 102.58,76.45 84.12,76.45 84.12,50.28 	"/>
	<polygon class="st0" points="126.91,50.28 126.91,55.73 117.51,55.73 117.51,76.45 110.91,76.45 110.91,55.73 101.59,55.73 
		101.59,50.28 	"/>
	<path class="st0" d="M136.73,50.28v14.2c0,4.3,2.19,6.72,6.41,6.72c4.03,0,6.33-2.07,6.33-6.64V50.28h6.6v14.43
		c0,7.79-4.8,12.09-12.93,12.09c-8.4,0-13.01-4.53-13.01-11.97V50.28H136.73z"/>
	<path class="st0" d="M172.3,50.28c6.18,0,9.36,3.3,9.36,7.9c0,2.88-1.38,5.18-4.3,6.48c1.65,0.92,2.65,2.15,4.26,5.18l3.42,6.6
		h-7.21l-3.03-5.91c-2-4.03-3.3-4.64-5.6-4.64h-1.19v10.55h-6.6V50.28H172.3z M168.01,61.64h2.76c2.49,0,4.18-0.69,4.18-3.38
		c0-2.19-1.23-3.49-4.07-3.49h-2.88V61.64z"/>
	<polygon class="st0" points="31,84.69 45.7,101 45.7,84.69 52.22,84.69 52.22,110.86 46.35,110.86 31.69,94.59 31.69,110.86 
		25.21,110.86 25.21,84.69 	"/>
	<path class="st0" d="M69.18,84.69c6.18,0,9.36,3.3,9.36,7.9c0,2.88-1.38,5.18-4.3,6.49c1.65,0.92,2.65,2.15,4.26,5.18l3.41,6.6
		H74.7l-3.03-5.91c-1.99-4.03-3.3-4.64-5.6-4.64h-1.19v10.55h-6.6V84.69H69.18z M64.88,96.05h2.76c2.49,0,4.18-0.69,4.18-3.38
		c0-2.19-1.23-3.49-4.07-3.49h-2.88V96.05z"/>
	<polygon class="st0" points="87.48,84.69 93.43,100.27 99.95,84.69 104.94,84.69 111.34,100.27 117.45,84.69 124.16,84.69 
		113.11,111.13 109.73,111.13 102.4,93.94 95,111.13 91.54,111.13 80.69,84.69 	"/>
	<polygon class="st0" points="38.87,62.56 49.07,50.28 41.71,50.28 31.81,62.33 31.81,50.28 14.4,50.29 14.4,53.53 25.21,55.75 
		25.21,76.45 31.81,76.45 31.81,63.75 42.78,76.45 50.99,76.45 	"/>
	<path class="st0" d="M26.05,121.62v11.38h4.61v1.53h-6.25v-12.91H26.05z"/>
	<path class="st0" d="M37.73,128.61c0-1.12-0.79-1.81-2.12-1.81c-1.23,0-2.1,0.48-3.04,1.35v-1.66c0.81-0.66,1.77-1.12,3.08-1.12
		c2.3,0,3.63,1.27,3.63,3.36v5.81h-1.49v-1.18c-0.72,0.9-1.79,1.38-2.97,1.38c-1.57,0-2.71-1.09-2.71-2.56c0-1.6,1-2.56,2.99-2.89
		l2.64-0.44V128.61z M35.11,133.33c1.55,0,2.64-1,2.64-2.38v-0.76l-2.4,0.42c-1.09,0.2-1.66,0.66-1.66,1.46
		C33.69,132.83,34.28,133.33,35.11,133.33z"/>
	<path class="st0" d="M43.67,134.52h-1.59v-8.96h1.59v1.29c0.57-0.89,1.51-1.49,2.86-1.49c2.3,0,3.61,1.53,3.61,3.91v5.25h-1.59
		v-5.07c0-1.62-0.81-2.62-2.36-2.62c-1.55,0-2.53,1.16-2.53,3.01V134.52z"/>
	<path class="st0" d="M61.5,121.62v12.91h-1.57v-1.42c-0.64,0.98-1.84,1.62-3.17,1.62c-2.56,0-4.5-2.03-4.5-4.68
		c0-2.64,1.93-4.68,4.5-4.68c1.33,0,2.51,0.57,3.17,1.55v-5.29H61.5z M56.95,126.82c-1.77,0-3.08,1.4-3.08,3.23
		c0,1.82,1.31,3.23,3.08,3.23c1.77,0,3.08-1.4,3.08-3.23C60.03,128.22,58.72,126.82,56.95,126.82z"/>
	<path class="st0" d="M71.92,133.58c-1.02,0.72-2.21,1.14-3.47,1.14c-2.86,0-4.7-2.05-4.7-4.68c0-2.65,1.84-4.68,4.43-4.68
		c2.51,0,4.22,2.05,4.22,4.61c0,0.2-0.02,0.33-0.02,0.42c-0.02,0.06-0.02,0.09-0.02,0.15h-7.02c0.15,1.49,1.36,2.75,3.23,2.75
		c1.14,0,2.27-0.48,3.36-1.42V133.58z M70.79,129.23c-0.15-1.4-1.16-2.49-2.66-2.49c-1.47,0-2.67,1.27-2.76,2.49H70.79z"/>
	<path class="st0" d="M74.03,132.05c0.81,0.74,1.84,1.25,2.95,1.25c0.88,0,1.73-0.31,1.73-1.23c0-0.94-0.88-1.24-1.99-1.48
		c-1.29-0.29-2.71-0.77-2.71-2.53c0-1.82,1.53-2.71,3.14-2.71c0.96,0,1.92,0.3,2.71,0.83v1.68c-0.79-0.64-1.72-1.11-2.67-1.11
		c-0.76,0-1.62,0.29-1.62,1.12c0,0.81,0.78,1.14,1.81,1.42c1.68,0.39,2.91,1.01,2.91,2.64c0,1.84-1.53,2.78-3.32,2.78
		c-0.98,0-2.06-0.28-2.93-0.92V132.05z"/>
	<path class="st0" d="M87.73,128.61c0-1.12-0.79-1.81-2.12-1.81c-1.24,0-2.1,0.48-3.04,1.35v-1.66c0.81-0.66,1.77-1.12,3.08-1.12
		c2.3,0,3.63,1.27,3.63,3.36v5.81h-1.49v-1.18c-0.72,0.9-1.79,1.38-2.97,1.38c-1.57,0-2.71-1.09-2.71-2.56
		c0-1.6,0.99-2.56,2.99-2.89l2.64-0.44V128.61z M85.11,133.33c1.55,0,2.64-1,2.64-2.38v-0.76l-2.4,0.42
		c-1.09,0.2-1.66,0.66-1.66,1.46C83.69,132.83,84.28,133.33,85.11,133.33z"/>
	<path class="st0" d="M96.69,127.04c-0.02,0-0.06,0-0.11-0.02c-0.07,0-0.2-0.02-0.33-0.02c-1.68,0-2.67,1.33-2.67,3.26v4.26h-1.57
		v-8.96h1.55v1.59c0.39-1.03,1.59-1.73,2.75-1.73c0.13,0,0.2,0.02,0.28,0.02c0.06,0.02,0.09,0.02,0.11,0.02V127.04z"/>
	<path class="st0" d="M98.67,134.52v-12.91h1.57v5.37c0.65-0.98,1.84-1.62,3.17-1.62c2.56,0,4.5,2.03,4.5,4.68
		c0,2.64-1.94,4.68-4.5,4.68c-1.33,0-2.51-0.57-3.17-1.55v1.35H98.67z M103.23,126.82c-1.77,0-3.08,1.4-3.08,3.23
		c0,1.82,1.31,3.23,3.08,3.23c1.77,0,3.08-1.4,3.08-3.23C106.3,128.22,104.99,126.82,103.23,126.82z"/>
	<path class="st0" d="M117.79,133.58c-1.01,0.72-2.21,1.14-3.47,1.14c-2.86,0-4.7-2.05-4.7-4.68c0-2.65,1.84-4.68,4.42-4.68
		c2.51,0,4.22,2.05,4.22,4.61c0,0.2-0.02,0.33-0.02,0.42c-0.02,0.06-0.02,0.09-0.02,0.15h-7.02c0.15,1.49,1.37,2.75,3.23,2.75
		c1.14,0,2.27-0.48,3.35-1.42V133.58z M116.66,129.23c-0.15-1.4-1.16-2.49-2.65-2.49c-1.47,0-2.67,1.27-2.77,2.49H116.66z"/>
	<path class="st0" d="M121.24,123.98c-0.59,0-1.07-0.48-1.07-1.07c0-0.59,0.48-1.07,1.07-1.07c0.59,0,1.07,0.48,1.07,1.07
		C122.31,123.5,121.83,123.98,121.24,123.98z M122.04,125.56v8.96h-1.59v-8.96H122.04z"/>
	<path class="st0" d="M126.88,123.46h0.06v2.1h2.51v1.42h-2.51v4.74c0,1.05,0.46,1.53,1.49,1.53c0.35,0,0.74-0.07,1.01-0.28v1.47
		c-0.31,0.17-0.77,0.28-1.38,0.28c-1.7,0-2.71-1.03-2.71-2.78v-4.96h-1.55v-0.2L126.88,123.46z"/>
	<path class="st0" d="M131.18,132.05c0.81,0.74,1.84,1.25,2.95,1.25c0.89,0,1.73-0.31,1.73-1.23c0-0.94-0.88-1.24-1.99-1.48
		c-1.29-0.29-2.71-0.77-2.71-2.53c0-1.82,1.53-2.71,3.13-2.71c0.96,0,1.92,0.3,2.71,0.83v1.68c-0.79-0.64-1.71-1.11-2.67-1.11
		c-0.76,0-1.62,0.29-1.62,1.12c0,0.81,0.77,1.14,1.81,1.42c1.68,0.39,2.91,1.01,2.91,2.64c0,1.84-1.53,2.78-3.32,2.78
		c-0.98,0-2.06-0.28-2.93-0.92V132.05z"/>
	<path class="st0" d="M146.17,134.23v-1.42c-0.65,0.98-1.83,1.62-3.1,1.62c-2.43,0-4.37-1.94-4.37-4.52c0-2.56,1.94-4.55,4.37-4.55
		c1.27,0,2.45,0.57,3.1,1.55v-1.35h1.57v8.63c0,2.65-1.9,4.39-4.79,4.39c-1.18,0-2.34-0.35-3.43-1.09v-1.77
		c1.11,0.92,2.25,1.38,3.43,1.38C144.93,137.1,146.17,136,146.17,134.23z M143.27,126.82c-1.7,0-2.97,1.36-2.97,3.1
		c0,1.73,1.27,3.1,2.97,3.1c1.7,0,2.99-1.36,2.99-3.1C146.26,128.18,144.97,126.82,143.27,126.82z"/>
	<path class="st0" d="M157.69,133.58c-1.01,0.72-2.21,1.14-3.47,1.14c-2.86,0-4.7-2.05-4.7-4.68c0-2.65,1.84-4.68,4.42-4.68
		c2.51,0,4.22,2.05,4.22,4.61c0,0.2-0.02,0.33-0.02,0.42c-0.02,0.06-0.02,0.09-0.02,0.15h-7.02c0.15,1.49,1.36,2.75,3.23,2.75
		c1.14,0,2.27-0.48,3.35-1.42V133.58z M156.57,129.23c-0.15-1.4-1.16-2.49-2.65-2.49c-1.48,0-2.67,1.27-2.77,2.49H156.57z"/>
	<path class="st0" d="M161.96,134.52h-1.59v-8.96h1.57v1.29c0.5-0.94,1.38-1.49,2.64-1.49c1.33,0,2.29,0.65,2.82,1.75
		c0.46-0.76,1.35-1.75,3.06-1.75c2.08,0,3.3,1.46,3.3,3.76v5.4h-1.59v-5.13c0-1.6-0.68-2.58-2.03-2.58c-1.4,0-2.29,1.16-2.29,3v4.7
		h-1.59v-5.09c0-1.62-0.7-2.62-2.03-2.62c-1.4,0-2.29,1.16-2.29,3V134.52z"/>
	<path class="st0" d="M184.07,133.58c-1.01,0.72-2.21,1.14-3.47,1.14c-2.86,0-4.7-2.05-4.7-4.68c0-2.65,1.84-4.68,4.42-4.68
		c2.51,0,4.22,2.05,4.22,4.61c0,0.2-0.02,0.33-0.02,0.42c-0.02,0.06-0.02,0.09-0.02,0.15h-7.02c0.15,1.49,1.37,2.75,3.23,2.75
		c1.14,0,2.27-0.48,3.35-1.42V133.58z M182.95,129.23c-0.15-1.4-1.16-2.49-2.65-2.49c-1.47,0-2.67,1.27-2.77,2.49H182.95z"/>
	<path class="st0" d="M187.55,123.98c-0.59,0-1.07-0.48-1.07-1.07c0-0.59,0.48-1.07,1.07-1.07c0.59,0,1.07,0.48,1.07,1.07
		C188.62,123.5,188.14,123.98,187.55,123.98z M188.34,125.56v8.96h-1.59v-8.96H188.34z"/>
	<path class="st0" d="M192.89,134.52h-1.59v-8.96h1.59v1.29c0.57-0.89,1.51-1.49,2.86-1.49c2.3,0,3.61,1.53,3.61,3.91v5.25h-1.59
		v-5.07c0-1.62-0.81-2.62-2.36-2.62c-1.55,0-2.53,1.16-2.53,3.01V134.52z"/>
	<path class="st0" d="M201.48,132.05c0.81,0.74,1.84,1.25,2.95,1.25c0.89,0,1.73-0.31,1.73-1.23c0-0.94-0.88-1.24-1.99-1.48
		c-1.29-0.29-2.71-0.77-2.71-2.53c0-1.82,1.53-2.71,3.13-2.71c0.96,0,1.92,0.3,2.71,0.83v1.68c-0.79-0.64-1.71-1.11-2.67-1.11
		c-0.76,0-1.62,0.29-1.62,1.12c0,0.81,0.77,1.14,1.81,1.42c1.68,0.39,2.91,1.01,2.91,2.64c0,1.84-1.53,2.78-3.32,2.78
		c-0.98,0-2.06-0.28-2.93-0.92V132.05z"/>
	<path class="st0" d="M214.07,125.36c0.94,0,1.79,0.26,2.54,0.77v1.6c-0.79-0.61-1.6-0.9-2.47-0.9c-1.83,0-3.15,1.4-3.15,3.21
		c0,1.79,1.33,3.21,3.15,3.21c0.94,0,1.81-0.42,2.53-0.88v1.6c-0.79,0.5-1.64,0.76-2.58,0.76c-2.8,0-4.7-2.05-4.7-4.68
		C209.39,127.43,211.32,125.36,214.07,125.36z"/>
	<path class="st0" d="M220.48,134.52h-1.59v-12.91h1.59v5.24c0.57-0.89,1.51-1.49,2.86-1.49c2.3,0,3.61,1.53,3.61,3.91v5.25h-1.59
		v-5.07c0-1.62-0.81-2.62-2.36-2.62s-2.53,1.16-2.53,3.01V134.52z"/>
	<path class="st0" d="M234.79,128.61c0-1.12-0.79-1.81-2.12-1.81c-1.24,0-2.1,0.48-3.04,1.35v-1.66c0.81-0.66,1.77-1.12,3.08-1.12
		c2.3,0,3.63,1.27,3.63,3.36v5.81h-1.49v-1.18c-0.72,0.9-1.79,1.38-2.97,1.38c-1.57,0-2.71-1.09-2.71-2.56c0-1.6,1-2.56,2.99-2.89
		l2.64-0.44V128.61z M232.17,133.33c1.55,0,2.64-1,2.64-2.38v-0.76l-2.4,0.42c-1.09,0.2-1.66,0.66-1.66,1.46
		C230.75,132.83,231.34,133.33,232.17,133.33z"/>
	<path class="st0" d="M239.46,134.52v-7.54h-1.38v-1.42h1.38v-0.77c0-2.29,1.31-3.39,3.08-3.39c0.64,0,1.07,0.09,1.35,0.22v1.42
		c-0.28-0.13-0.63-0.18-1.09-0.18c-1.01,0-1.75,0.5-1.75,1.9v0.81h2.36v1.42h-2.36v7.54H239.46z M247.44,123.46h0.06v2.1H250v1.42
		h-2.51v4.74c0,1.05,0.46,1.53,1.49,1.53c0.35,0,0.74-0.07,1.01-0.28v1.47c-0.31,0.17-0.77,0.28-1.38,0.28
		c-1.7,0-2.71-1.03-2.71-2.78v-4.96h-1.55v-0.2L247.44,123.46z"/>
	<path class="st0" d="M23.76,153.57c1.09,0.96,2.51,1.71,4.04,1.71c1.33,0,2.8-0.63,2.8-2.17c0-1.46-1.35-1.86-2.82-2.25
		c-1.92-0.5-4.04-1.09-4.04-3.71c0-2.34,2.05-3.63,4.2-3.63c1.47,0,2.73,0.44,3.85,1.25v1.9c-1.05-0.94-2.32-1.6-3.85-1.6
		c-1.18,0-2.54,0.68-2.54,1.99c0,1.57,1.49,1.94,3.1,2.38c1.83,0.5,3.76,1.22,3.76,3.58c0,2.51-2.17,3.84-4.44,3.84
		c-1.47,0-2.89-0.44-4.05-1.33V153.57z"/>
	<path class="st0" d="M43.2,152.17c0,2.58-1.97,4.68-4.68,4.68c-2.71,0-4.68-2.1-4.68-4.68c0-2.58,1.97-4.68,4.68-4.68
		C41.23,147.48,43.2,149.59,43.2,152.17z M35.44,152.17c0,1.79,1.31,3.23,3.08,3.23c1.77,0,3.08-1.44,3.08-3.23
		c0-1.79-1.31-3.23-3.08-3.23C36.75,148.94,35.44,150.38,35.44,152.17z"/>
	<path class="st0" d="M44.51,147.69h6.93v0.94l-5.18,6.64h5.25v1.38h-7.34v-0.98l5.14-6.6h-4.81V147.69z"/>
	<path class="st0" d="M54.16,146.1c-0.59,0-1.07-0.48-1.07-1.07c0-0.59,0.48-1.07,1.07-1.07c0.59,0,1.07,0.48,1.07,1.07
		C55.23,145.62,54.75,146.1,54.16,146.1z M54.96,147.69v8.96h-1.59v-8.96H54.96z"/>
	<path class="st0" d="M66.49,152.17c0,2.58-1.97,4.68-4.68,4.68c-2.71,0-4.68-2.1-4.68-4.68c0-2.58,1.97-4.68,4.68-4.68
		C64.52,147.48,66.49,149.59,66.49,152.17z M58.73,152.17c0,1.79,1.31,3.23,3.08,3.23c1.77,0,3.08-1.44,3.08-3.23
		c0-1.79-1.31-3.23-3.08-3.23C60.04,148.94,58.73,150.38,58.73,152.17z"/>
	<path class="st0" d="M70.24,151.25l3.76-3.56h2.03l-4.07,3.82l4.43,5.14h-2.01l-3.52-4.17l-0.61,0.57v3.59h-1.57v-12.91h1.57
		V151.25z"/>
	<path class="st0" d="M84.05,147.69h1.59v8.96h-1.59v-1.29c-0.57,0.88-1.49,1.49-2.84,1.49c-2.29,0-3.58-1.53-3.58-3.91v-5.25h1.59
		v5.07c0,1.62,0.79,2.62,2.32,2.62c1.53,0,2.51-1.16,2.51-3V147.69z"/>
	<path class="st0" d="M90.04,143.74v12.91h-1.59v-12.91H90.04z"/>
	<path class="st0" d="M94.83,145.59h0.06v2.1h2.51v1.42h-2.51v4.74c0,1.05,0.46,1.53,1.49,1.53c0.35,0,0.74-0.07,1.01-0.28v1.48
		c-0.31,0.17-0.77,0.28-1.38,0.28c-1.7,0-2.71-1.03-2.71-2.78v-4.96h-1.55v-0.2L94.83,145.59z"/>
	<path class="st0" d="M105.62,147.69h1.59v8.96h-1.59v-1.29c-0.57,0.88-1.49,1.49-2.84,1.49c-2.29,0-3.58-1.53-3.58-3.91v-5.25h1.59
		v5.07c0,1.62,0.79,2.62,2.32,2.62c1.53,0,2.51-1.16,2.51-3V147.69z"/>
	<path class="st0" d="M115.01,149.16c-0.02,0-0.06,0-0.11-0.02c-0.07,0-0.2-0.02-0.33-0.02c-1.68,0-2.67,1.33-2.67,3.26v4.26h-1.57
		v-8.96h1.55v1.59c0.39-1.03,1.59-1.73,2.75-1.73c0.13,0,0.2,0.02,0.28,0.02c0.06,0.02,0.09,0.02,0.11,0.02V149.16z"/>
	<path class="st0" d="M124.01,155.71c-1.01,0.72-2.21,1.14-3.47,1.14c-2.86,0-4.7-2.05-4.7-4.68c0-2.65,1.84-4.68,4.42-4.68
		c2.51,0,4.22,2.05,4.22,4.61c0,0.2-0.02,0.33-0.02,0.42c-0.02,0.06-0.02,0.09-0.02,0.15h-7.02c0.15,1.49,1.36,2.75,3.23,2.75
		c1.14,0,2.27-0.48,3.35-1.42V155.71z M122.88,151.36c-0.15-1.4-1.16-2.49-2.65-2.49c-1.47,0-2.67,1.27-2.77,2.49H122.88z"/>
	<path class="st0" d="M128.16,143.74v12.91h-1.59v-12.91H128.16z"/>
	<path class="st0" d="M132.71,143.74v12.91h-1.59v-12.91H132.71z"/>
	<path class="st0" d="M143.07,155.71c-1.01,0.72-2.21,1.14-3.47,1.14c-2.86,0-4.7-2.05-4.7-4.68c0-2.65,1.84-4.68,4.42-4.68
		c2.51,0,4.22,2.05,4.22,4.61c0,0.2-0.02,0.33-0.02,0.42c-0.02,0.06-0.02,0.09-0.02,0.15h-7.02c0.15,1.49,1.36,2.75,3.23,2.75
		c1.14,0,2.27-0.48,3.35-1.42V155.71z M141.94,151.36c-0.15-1.4-1.16-2.49-2.65-2.49c-1.48,0-2.67,1.27-2.77,2.49H141.94z"/>
	<path class="st0" d="M150.32,149.16c-0.02,0-0.06,0-0.11-0.02c-0.07,0-0.2-0.02-0.33-0.02c-1.68,0-2.67,1.33-2.67,3.26v4.26h-1.57
		v-8.96h1.55v1.59c0.39-1.03,1.59-1.73,2.75-1.73c0.13,0,0.2,0.02,0.28,0.02c0.06,0.02,0.09,0.02,0.11,0.02V149.16z"/>
	<path class="st0" d="M157.97,155.15h7.65v1.49h-9.9v-1l7.58-10.42h-7.1v-1.49h9.36v1L157.97,155.15z"/>
	<path class="st0" d="M175.1,155.71c-1.01,0.72-2.21,1.14-3.47,1.14c-2.86,0-4.7-2.05-4.7-4.68c0-2.65,1.84-4.68,4.42-4.68
		c2.51,0,4.22,2.05,4.22,4.61c0,0.2-0.02,0.33-0.02,0.42c-0.02,0.06-0.02,0.09-0.02,0.15h-7.02c0.15,1.49,1.37,2.75,3.23,2.75
		c1.14,0,2.27-0.48,3.35-1.42V155.71z M173.97,151.36c-0.15-1.4-1.16-2.49-2.65-2.49c-1.47,0-2.67,1.27-2.77,2.49H173.97z"/>
	<path class="st0" d="M179.27,156.65h-1.59v-8.96h1.59v1.29c0.57-0.89,1.51-1.49,2.86-1.49c2.3,0,3.61,1.53,3.61,3.91v5.25h-1.59
		v-5.07c0-1.62-0.81-2.62-2.36-2.62c-1.55,0-2.53,1.16-2.53,3.01V156.65z"/>
	<path class="st0" d="M190.26,145.59h0.06v2.1h2.51v1.42h-2.51v4.74c0,1.05,0.46,1.53,1.49,1.53c0.35,0,0.74-0.07,1.01-0.28v1.48
		c-0.31,0.17-0.77,0.28-1.38,0.28c-1.7,0-2.71-1.03-2.71-2.78v-4.96h-1.55v-0.2L190.26,145.59z"/>
	<path class="st0" d="M199.5,149.16c-0.02,0-0.06,0-0.11-0.02c-0.07,0-0.2-0.02-0.33-0.02c-1.68,0-2.67,1.33-2.67,3.26v4.26h-1.57
		v-8.96h1.55v1.59c0.39-1.03,1.59-1.73,2.75-1.73c0.13,0,0.2,0.02,0.28,0.02c0.06,0.02,0.09,0.02,0.11,0.02V149.16z"/>
	<path class="st0" d="M208.45,155.71c-1.01,0.72-2.21,1.14-3.47,1.14c-2.86,0-4.7-2.05-4.7-4.68c0-2.65,1.84-4.68,4.42-4.68
		c2.51,0,4.22,2.05,4.22,4.61c0,0.2-0.02,0.33-0.02,0.42c-0.02,0.06-0.02,0.09-0.02,0.15h-7.02c0.15,1.49,1.36,2.75,3.23,2.75
		c1.14,0,2.27-0.48,3.35-1.42V155.71z M207.32,151.36c-0.15-1.4-1.16-2.49-2.65-2.49c-1.48,0-2.67,1.27-2.77,2.49H207.32z"/>
	<path class="st0" d="M212.58,156.65H211v-8.96h1.59v1.29c0.57-0.89,1.51-1.49,2.86-1.49c2.3,0,3.61,1.53,3.61,3.91v5.25h-1.59
		v-5.07c0-1.62-0.81-2.62-2.36-2.62c-1.55,0-2.53,1.16-2.53,3.01V156.65z"/>
	<path class="st0" d="M237.39,143.74v12.91h-1.55l-7.84-10.42v10.42h-1.59v-12.91h1.68l7.71,10.29v-10.29H237.39z"/>
	<path class="st0" d="M242.28,156.65h-1.64v-12.91h3.78c2.43,0,4.15,1.35,4.15,3.72c0,1.99-1.35,3.28-3.21,3.63l4.06,5.55h-1.94
		l-3.95-5.48h-1.25V156.65z M242.28,149.72h2.12c1.47,0,2.51-0.83,2.51-2.25c0-1.46-1.03-2.21-2.51-2.21h-2.12V149.72z"/>
	<path class="st0" d="M254.06,156.65l-4.37-12.91h1.7l3.24,9.85l3.39-9.85h1.01l3.39,9.85l3.26-9.85h1.66l-4.39,12.91h-1.05
		l-3.41-9.83l-3.39,9.83H254.06z"/>
	<path class="st0" d="M280.79,155.71c-1.01,0.72-2.21,1.14-3.47,1.14c-2.86,0-4.7-2.05-4.7-4.68c0-2.65,1.84-4.68,4.42-4.68
		c2.51,0,4.22,2.05,4.22,4.61c0,0.2-0.02,0.33-0.02,0.42c-0.02,0.06-0.02,0.09-0.02,0.15h-7.02c0.15,1.49,1.37,2.75,3.23,2.75
		c1.14,0,2.27-0.48,3.35-1.42V155.71z M279.66,151.36c-0.15-1.4-1.16-2.49-2.65-2.49c-1.47,0-2.67,1.27-2.77,2.49H279.66z"/>
	<path class="st0" d="M284.35,156.81c-0.64,0-1.12-0.48-1.12-1.12c0-0.61,0.48-1.1,1.12-1.1c0.65,0,1.12,0.5,1.12,1.1
		C285.48,156.33,285,156.81,284.35,156.81z"/>
	<path class="st0" d="M290,156.65l-5.03-12.91h1.73l3.87,10.16l3.85-10.16h1.7l-5.01,12.91H290z"/>
	<path class="st0" d="M296.74,156.81c-0.64,0-1.12-0.48-1.12-1.12c0-0.61,0.48-1.1,1.12-1.1c0.65,0,1.12,0.5,1.12,1.1
		C297.86,156.33,297.38,156.81,296.74,156.81z"/>
	<path class="st0" d="M134.21,15.67l-0.88,5.74c3.98,0.69,6.14,3.86,6.14,7.49c0,4.84-3.22,7.71-7.83,7.71
		c-4.53,0-7.71-3.11-7.71-7.64c0-4,2.3-6.94,6.14-7.58l-0.88-5.73c-8.41,1.07-12.02,7.39-12.02,13.31c0,7.1,5.03,13.39,14.47,13.39
		c9.36,0,14.58-6.1,14.58-13.43C146.23,22.14,141.76,16.65,134.21,15.67z"/>
</g>
</svg>

